<svg width="150" height="150" viewBox="0 0 150 150" fill="none" xmlns="http://www.w3.org/2000/svg">
<path d="M138.411 19.656C136.161 17.748 132.627 17.475 128.973 18.942H128.967C125.124 20.484 20.184 65.496 15.912 67.335C15.135 67.605 8.34899 70.137 9.04799 75.777C9.67199 80.862 15.126 82.968 15.792 83.211L42.471 92.346C44.241 98.238 50.766 119.976 52.209 124.62C53.109 127.515 54.576 131.319 57.147 132.102C59.403 132.972 61.647 132.177 63.099 131.037L79.41 115.908L105.741 136.443L106.368 136.818C108.156 137.61 109.869 138.006 111.504 138.006C112.767 138.006 113.979 137.769 115.137 137.295C119.082 135.675 120.66 131.916 120.825 131.49L140.493 29.259C141.693 23.799 140.025 21.021 138.411 19.656ZM66 96L57 120L48 90L117 39L66 96Z" fill="#DFDFDF"/>
</svg>
